<svg width="40" height="41" viewBox="0 0 40 41" fill="none" xmlns="http://www.w3.org/2000/svg">
<rect y="0.5" width="40" height="40" rx="20" fill="black"/>
<g clip-path="url(#clip0_2884_1545)">
<path d="M28.1599 26.0863C27.8575 26.7851 27.4995 27.4283 27.0847 28.0196C26.5192 28.8257 26.0563 29.3838 25.6995 29.6936C25.1464 30.2022 24.5539 30.4627 23.9193 30.4775C23.4638 30.4775 22.9144 30.3479 22.2749 30.085C21.6333 29.8232 21.0437 29.6936 20.5046 29.6936C19.9392 29.6936 19.3328 29.8232 18.6842 30.085C18.0346 30.3479 17.5113 30.485 17.1111 30.4985C16.5026 30.5245 15.8961 30.2566 15.2907 29.6936C14.9043 29.3566 14.421 28.7788 13.842 27.9603C13.2208 27.0863 12.71 26.0727 12.3099 24.9172C11.8814 23.6691 11.6666 22.4605 11.6666 21.2904C11.6666 19.9501 11.9562 18.7941 12.5364 17.8253C12.9923 17.0472 13.5988 16.4334 14.3579 15.9828C15.117 15.5322 15.9372 15.3026 16.8205 15.2879C17.3039 15.2879 17.9377 15.4374 18.7253 15.7312C19.5107 16.026 20.015 16.1755 20.2361 16.1755C20.4014 16.1755 20.9616 16.0007 21.9114 15.6522C22.8095 15.329 23.5675 15.1952 24.1884 15.2479C25.8711 15.3837 27.1353 16.047 27.976 17.242C26.4711 18.1538 25.7267 19.431 25.7415 21.0693C25.7551 22.3454 26.218 23.4074 27.1279 24.2506C27.5402 24.6419 28.0007 24.9444 28.513 25.1592C28.4019 25.4814 28.2846 25.79 28.1599 26.0863ZM24.3008 10.9004C24.3008 11.9006 23.9354 12.8345 23.207 13.6989C22.328 14.7265 21.2648 15.3203 20.1119 15.2266C20.0972 15.1067 20.0887 14.9804 20.0887 14.8476C20.0887 13.8874 20.5067 12.8598 21.249 12.0196C21.6196 11.5942 22.091 11.2404 22.6626 10.9583C23.2329 10.6803 23.7724 10.5266 24.2798 10.5002C24.2946 10.634 24.3008 10.7677 24.3008 10.9003V10.9004Z" fill="white"/>
</g>
<defs>
<clipPath id="clip0_2884_1545">
<rect width="20" height="20" fill="white" transform="translate(10 10.5)"/>
</clipPath>
</defs>
</svg>
