<svg width="72" height="72" viewBox="0 0 72 72" fill="none" xmlns="http://www.w3.org/2000/svg">
<rect x="0.5" y="0.5" width="71" height="71" rx="35.5" fill="white"/>
<rect x="0.5" y="0.5" width="71" height="71" rx="35.5" stroke="#DDDDDD"/>
<path d="M35.9388 39.7331C42.4925 39.7331 47.8053 34.4202 47.8053 27.8665C47.8053 21.3128 42.4925 16 35.9388 16C29.3851 16 24.0723 21.3128 24.0723 27.8665C24.0723 34.4202 29.3851 39.7331 35.9388 39.7331Z" fill="#DDDDDD"/>
<path d="M58.8759 64.4731C52.4568 69.2041 44.5239 72 35.938 72C27.352 72 19.4191 69.2041 13 64.4731C14.2784 59.659 17.0435 55.3562 20.9185 52.1889C25.1572 48.7244 30.4634 46.8318 35.938 46.8318C41.4125 46.8318 46.7187 48.7244 50.9575 52.1889C54.8325 55.3562 57.5975 59.659 58.8759 64.4731Z" fill="#DDDDDD"/>
</svg>
