<svg width="32" height="32" viewBox="0 0 32 32" fill="none" xmlns="http://www.w3.org/2000/svg">
<g clip-path="url(#clip0_3248_3299)">
<circle cx="16" cy="16" r="16" fill="#6D39FF"/>
<path d="M24.25 21.25C24.25 21.6478 24.092 22.0294 23.8107 22.3107C23.5294 22.592 23.1478 22.75 22.75 22.75H9.25C8.85218 22.75 8.47064 22.592 8.18934 22.3107C7.90804 22.0294 7.75 21.6478 7.75 21.25V13C7.75 12.6022 7.90804 12.2206 8.18934 11.9393C8.47064 11.658 8.85218 11.5 9.25 11.5H12.25L13.75 9.25H18.25L19.75 11.5H22.75C23.1478 11.5 23.5294 11.658 23.8107 11.9393C24.092 12.2206 24.25 12.6022 24.25 13V21.25Z" stroke="white" stroke-width="1.5" stroke-linecap="round" stroke-linejoin="round"/>
<path d="M16 19.75C17.6569 19.75 19 18.4069 19 16.75C19 15.0931 17.6569 13.75 16 13.75C14.3431 13.75 13 15.0931 13 16.75C13 18.4069 14.3431 19.75 16 19.75Z" stroke="white" stroke-width="1.5" stroke-linecap="round" stroke-linejoin="round"/>
</g>
<defs>
<clipPath id="clip0_3248_3299">
<rect width="32" height="32" fill="white"/>
</clipPath>
</defs>
</svg>
