<svg width="40" height="41" viewBox="0 0 40 41" fill="none" xmlns="http://www.w3.org/2000/svg">
<g clip-path="url(#clip0_2884_1539)">
<path d="M29.805 20.7303C29.805 20.0506 29.7499 19.3671 29.6323 18.6984H20.2V22.5492H25.6014C25.3773 23.7911 24.6571 24.8898 23.6025 25.5879V28.0866H26.825C28.7173 26.3449 29.805 23.7728 29.805 20.7303Z" fill="#4285F4"/>
<path d="M20.2 30.5007C22.8971 30.5007 25.1716 29.6152 26.8287 28.0866L23.6063 25.588C22.7097 26.1979 21.5522 26.5433 20.2037 26.5433C17.5949 26.5433 15.3828 24.7833 14.5892 22.4169H11.2638V24.9927C12.9614 28.3695 16.419 30.5007 20.2 30.5007Z" fill="#34A853"/>
<path d="M14.5854 22.4169C14.1665 21.1749 14.1665 19.8301 14.5854 18.5881V16.0123H11.2637C9.84537 18.838 9.84537 22.167 11.2637 24.9927L14.5854 22.4169Z" fill="#FBBC04"/>
<path d="M20.2 14.4581C21.6257 14.436 23.0036 14.9725 24.0362 15.9572L26.8912 13.1022C25.0834 11.4046 22.684 10.4713 20.2 10.5007C16.419 10.5007 12.9614 12.6319 11.2638 16.0123L14.5855 18.5881C15.3755 16.2181 17.5912 14.4581 20.2 14.4581Z" fill="#EA4335"/>
</g>
<rect x="0.5" y="1" width="39" height="39" rx="19.5" stroke="#EEEEEE"/>
<defs>
<clipPath id="clip0_2884_1539">
<rect width="20" height="20" fill="white" transform="translate(10 10.5)"/>
</clipPath>
</defs>
</svg>
