<svg width="40" height="41" viewBox="0 0 40 41" fill="none" xmlns="http://www.w3.org/2000/svg">
<rect y="0.5" width="40" height="40" rx="20" fill="#F9E000"/>
<g clip-path="url(#clip0_2884_1531)">
<path d="M19.8201 13C15.3143 13 11.6667 15.8869 11.6667 19.4564C11.6667 21.7776 13.2076 23.8062 15.5484 24.9376C15.3728 25.5813 14.9242 27.2393 14.8461 27.6099C14.7291 28.0585 15.0022 28.039 15.1972 27.922C15.3338 27.8244 17.4404 26.4005 18.3377 25.7958C18.8253 25.8739 19.3325 25.9129 19.8591 25.9129C24.365 25.9129 28.0126 23.026 28.0126 19.4564C27.9931 15.8869 24.3455 13 19.8201 13Z" fill="#401C26"/>
</g>
<defs>
<clipPath id="clip0_2884_1531">
<rect width="16.3264" height="15" fill="white" transform="translate(11.6667 13)"/>
</clipPath>
</defs>
</svg>
